<?xml version="1.0" encoding="utf-8" standalone="no"?>
<!DOCTYPE svg PUBLIC "-//W3C//DTD SVG 1.1//EN"
  "http://www.w3.org/Graphics/SVG/1.1/DTD/svg11.dtd">
<svg xmlns:xlink="http://www.w3.org/1999/xlink" width="720pt" height="432pt" viewBox="0 0 720 432" xmlns="http://www.w3.org/2000/svg" version="1.1">
 <metadata>
  <rdf:RDF xmlns:dc="http://purl.org/dc/elements/1.1/" xmlns:cc="http://creativecommons.org/ns#" xmlns:rdf="http://www.w3.org/1999/02/22-rdf-syntax-ns#">
   <cc:Work>
    <dc:type rdf:resource="http://purl.org/dc/dcmitype/StillImage"/>
    <dc:date>2024-09-22T13:45:33.924349</dc:date>
    <dc:format>image/svg+xml</dc:format>
    <dc:creator>
     <cc:Agent>
      <dc:title>Matplotlib v3.8.3, https://matplotlib.org/</dc:title>
     </cc:Agent>
    </dc:creator>
   </cc:Work>
  </rdf:RDF>
 </metadata>
 <defs>
  <style type="text/css">*{stroke-linejoin: round; stroke-linecap: butt}</style>
 </defs>
 <g id="figure_1">
  <g id="patch_1">
   <path d="M 0 432 
L 720 432 
L 720 0 
L 0 0 
z
" style="fill: #ffffff"/>
  </g>
  <g id="axes_1">
   <g id="patch_2">
    <path d="M 90 384.48 
L 648 384.48 
L 648 51.84 
L 90 51.84 
z
" style="fill: #ffffff"/>
   </g>
   <g id="patch_3">
    <path d="M 90 369.36 
L 340.065844 369.36 
L 340.065844 366.935952 
L 90 366.935952 
z
" clip-path="url(#pa78effb08f)" style="fill: #0000ff"/>
   </g>
   <g id="patch_4">
    <path d="M 90 366.32994 
L 456.079023 366.32994 
L 456.079023 363.905892 
L 90 363.905892 
z
" clip-path="url(#pa78effb08f)" style="fill: #0000ff"/>
   </g>
   <g id="patch_5">
    <path d="M 90 363.29988 
L 621.428571 363.29988 
L 621.428571 360.875832 
L 90 360.875832 
z
" clip-path="url(#pa78effb08f)" style="fill: #0000ff"/>
   </g>
   <g id="patch_6">
    <path d="M 90 360.26982 
L 283.622361 360.26982 
L 283.622361 357.845772 
L 90 357.845772 
z
" clip-path="url(#pa78effb08f)" style="fill: #0000ff"/>
   </g>
   <g id="patch_7">
    <path d="M 90 357.23976 
L 381.525845 357.23976 
L 381.525845 354.815711 
L 90 354.815711 
z
" clip-path="url(#pa78effb08f)" style="fill: #0000ff"/>
   </g>
   <g id="patch_8">
    <path d="M 90 354.209699 
L 299.275922 354.209699 
L 299.275922 351.785651 
L 90 351.785651 
z
" clip-path="url(#pa78effb08f)" style="fill: #0000ff"/>
   </g>
   <g id="patch_9">
    <path d="M 90 351.179639 
L 500.667877 351.179639 
L 500.667877 348.755591 
L 90 348.755591 
z
" clip-path="url(#pa78effb08f)" style="fill: #0000ff"/>
   </g>
   <g id="patch_10">
    <path d="M 90 348.149579 
L 527.610584 348.149579 
L 527.610584 345.725531 
L 90 345.725531 
z
" clip-path="url(#pa78effb08f)" style="fill: #0000ff"/>
   </g>
   <g id="patch_11">
    <path d="M 90 345.119519 
L 483.218 345.119519 
L 483.218 342.695471 
L 90 342.695471 
z
" clip-path="url(#pa78effb08f)" style="fill: #0000ff"/>
   </g>
   <g id="patch_12">
    <path d="M 90 342.089459 
L 477.390538 342.089459 
L 477.390538 339.665411 
L 90 339.665411 
z
" clip-path="url(#pa78effb08f)" style="fill: #0000ff"/>
   </g>
   <g id="patch_13">
    <path d="M 90 339.059399 
L 414.623057 339.059399 
L 414.623057 336.635351 
L 90 336.635351 
z
" clip-path="url(#pa78effb08f)" style="fill: #0000ff"/>
   </g>
   <g id="patch_14">
    <path d="M 90 336.029339 
L 467.436997 336.029339 
L 467.436997 333.605291 
L 90 333.605291 
z
" clip-path="url(#pa78effb08f)" style="fill: #0000ff"/>
   </g>
   <g id="patch_15">
    <path d="M 90 332.999279 
L 592.19235 332.999279 
L 592.19235 330.57523 
L 90 330.57523 
z
" clip-path="url(#pa78effb08f)" style="fill: #0000ff"/>
   </g>
   <g id="patch_16">
    <path d="M 90 329.969218 
L 285.506772 329.969218 
L 285.506772 327.54517 
L 90 327.54517 
z
" clip-path="url(#pa78effb08f)" style="fill: #0000ff"/>
   </g>
   <g id="patch_17">
    <path d="M 90 326.939158 
L 243.250459 326.939158 
L 243.250459 324.51511 
L 90 324.51511 
z
" clip-path="url(#pa78effb08f)" style="fill: #0000ff"/>
   </g>
   <g id="patch_18">
    <path d="M 90 323.909098 
L 620.389482 323.909098 
L 620.389482 321.48505 
L 90 321.48505 
z
" clip-path="url(#pa78effb08f)" style="fill: #0000ff"/>
   </g>
   <g id="patch_19">
    <path d="M 90 320.879038 
L 448.126599 320.879038 
L 448.126599 318.45499 
L 90 318.45499 
z
" clip-path="url(#pa78effb08f)" style="fill: #0000ff"/>
   </g>
   <g id="patch_20">
    <path d="M 90 317.848978 
L 245.064682 317.848978 
L 245.064682 315.42493 
L 90 315.42493 
z
" clip-path="url(#pa78effb08f)" style="fill: #0000ff"/>
   </g>
   <g id="patch_21">
    <path d="M 90 314.818918 
L 455.048084 314.818918 
L 455.048084 312.39487 
L 90 312.39487 
z
" clip-path="url(#pa78effb08f)" style="fill: #0000ff"/>
   </g>
   <g id="patch_22">
    <path d="M 90 311.788858 
L 291.397492 311.788858 
L 291.397492 309.36481 
L 90 309.36481 
z
" clip-path="url(#pa78effb08f)" style="fill: #0000ff"/>
   </g>
   <g id="patch_23">
    <path d="M 90 308.758798 
L 463.958714 308.758798 
L 463.958714 306.334749 
L 90 306.334749 
z
" clip-path="url(#pa78effb08f)" style="fill: #0000ff"/>
   </g>
   <g id="patch_24">
    <path d="M 90 305.728737 
L 491.407649 305.728737 
L 491.407649 303.304689 
L 90 303.304689 
z
" clip-path="url(#pa78effb08f)" style="fill: #0000ff"/>
   </g>
   <g id="patch_25">
    <path d="M 90 302.698677 
L 568.638302 302.698677 
L 568.638302 300.274629 
L 90 300.274629 
z
" clip-path="url(#pa78effb08f)" style="fill: #0000ff"/>
   </g>
   <g id="patch_26">
    <path d="M 90 299.668617 
L 226.56685 299.668617 
L 226.56685 297.244569 
L 90 297.244569 
z
" clip-path="url(#pa78effb08f)" style="fill: #0000ff"/>
   </g>
   <g id="patch_27">
    <path d="M 90 296.638557 
L 427.857451 296.638557 
L 427.857451 294.214509 
L 90 294.214509 
z
" clip-path="url(#pa78effb08f)" style="fill: #0000ff"/>
   </g>
   <g id="patch_28">
    <path d="M 90 293.608497 
L 440.409476 293.608497 
L 440.409476 291.184449 
L 90 291.184449 
z
" clip-path="url(#pa78effb08f)" style="fill: #0000ff"/>
   </g>
   <g id="patch_29">
    <path d="M 90 290.578437 
L 287.352 290.578437 
L 287.352 288.154389 
L 90 288.154389 
z
" clip-path="url(#pa78effb08f)" style="fill: #0000ff"/>
   </g>
   <g id="patch_30">
    <path d="M 90 287.548377 
L 254.487826 287.548377 
L 254.487826 285.124329 
L 90 285.124329 
z
" clip-path="url(#pa78effb08f)" style="fill: #0000ff"/>
   </g>
   <g id="patch_31">
    <path d="M 90 284.518317 
L 516.057967 284.518317 
L 516.057967 282.094269 
L 90 282.094269 
z
" clip-path="url(#pa78effb08f)" style="fill: #0000ff"/>
   </g>
   <g id="patch_32">
    <path d="M 90 281.488257 
L 296.321129 281.488257 
L 296.321129 279.064208 
L 90 279.064208 
z
" clip-path="url(#pa78effb08f)" style="fill: #0000ff"/>
   </g>
   <g id="patch_33">
    <path d="M 90 278.458196 
L 583.711017 278.458196 
L 583.711017 276.034148 
L 90 276.034148 
z
" clip-path="url(#pa78effb08f)" style="fill: #0000ff"/>
   </g>
   <g id="patch_34">
    <path d="M 90 275.428136 
L 582.066206 275.428136 
L 582.066206 273.004088 
L 90 273.004088 
z
" clip-path="url(#pa78effb08f)" style="fill: #0000ff"/>
   </g>
   <g id="patch_35">
    <path d="M 90 272.398076 
L 592.680502 272.398076 
L 592.680502 269.974028 
L 90 269.974028 
z
" clip-path="url(#pa78effb08f)" style="fill: #0000ff"/>
   </g>
   <g id="patch_36">
    <path d="M 90 269.368016 
L 248.275026 269.368016 
L 248.275026 266.943968 
L 90 266.943968 
z
" clip-path="url(#pa78effb08f)" style="fill: #0000ff"/>
   </g>
   <g id="patch_37">
    <path d="M 90 266.337956 
L 494.838134 266.337956 
L 494.838134 263.913908 
L 90 263.913908 
z
" clip-path="url(#pa78effb08f)" style="fill: #0000ff"/>
   </g>
   <g id="patch_38">
    <path d="M 90 263.307896 
L 536.904696 263.307896 
L 536.904696 260.883848 
L 90 260.883848 
z
" clip-path="url(#pa78effb08f)" style="fill: #0000ff"/>
   </g>
   <g id="patch_39">
    <path d="M 90 260.277836 
L 620.297264 260.277836 
L 620.297264 257.853788 
L 90 257.853788 
z
" clip-path="url(#pa78effb08f)" style="fill: #0000ff"/>
   </g>
   <g id="patch_40">
    <path d="M 90 257.247776 
L 371.863963 257.247776 
L 371.863963 254.823727 
L 90 254.823727 
z
" clip-path="url(#pa78effb08f)" style="fill: #0000ff"/>
   </g>
   <g id="patch_41">
    <path d="M 90 254.217715 
L 522.335461 254.217715 
L 522.335461 251.793667 
L 90 251.793667 
z
" clip-path="url(#pa78effb08f)" style="fill: #0000ff"/>
   </g>
   <g id="patch_42">
    <path d="M 90 251.187655 
L 497.672916 251.187655 
L 497.672916 248.763607 
L 90 248.763607 
z
" clip-path="url(#pa78effb08f)" style="fill: #0000ff"/>
   </g>
   <g id="patch_43">
    <path d="M 90 248.157595 
L 595.416205 248.157595 
L 595.416205 245.733547 
L 90 245.733547 
z
" clip-path="url(#pa78effb08f)" style="fill: #0000ff"/>
   </g>
   <g id="patch_44">
    <path d="M 90 245.127535 
L 383.739619 245.127535 
L 383.739619 242.703487 
L 90 242.703487 
z
" clip-path="url(#pa78effb08f)" style="fill: #0000ff"/>
   </g>
   <g id="patch_45">
    <path d="M 90 242.097475 
L 572.090142 242.097475 
L 572.090142 239.673427 
L 90 239.673427 
z
" clip-path="url(#pa78effb08f)" style="fill: #0000ff"/>
   </g>
   <g id="patch_46">
    <path d="M 90 239.067415 
L 416.089824 239.067415 
L 416.089824 236.643367 
L 90 236.643367 
z
" clip-path="url(#pa78effb08f)" style="fill: #0000ff"/>
   </g>
   <g id="patch_47">
    <path d="M 90 236.037355 
L 249.672788 236.037355 
L 249.672788 233.613307 
L 90 233.613307 
z
" clip-path="url(#pa78effb08f)" style="fill: #0000ff"/>
   </g>
   <g id="patch_48">
    <path d="M 90 233.007295 
L 534.852064 233.007295 
L 534.852064 230.583246 
L 90 230.583246 
z
" clip-path="url(#pa78effb08f)" style="fill: #0000ff"/>
   </g>
   <g id="patch_49">
    <path d="M 90 229.977234 
L 320.984814 229.977234 
L 320.984814 227.553186 
L 90 227.553186 
z
" clip-path="url(#pa78effb08f)" style="fill: #0000ff"/>
   </g>
   <g id="patch_50">
    <path d="M 90 226.947174 
L 620.753277 226.947174 
L 620.753277 224.523126 
L 90 224.523126 
z
" clip-path="url(#pa78effb08f)" style="fill: #0000ff"/>
   </g>
   <g id="patch_51">
    <path d="M 90 223.917114 
L 596.339347 223.917114 
L 596.339347 221.493066 
L 90 221.493066 
z
" clip-path="url(#pa78effb08f)" style="fill: #0000ff"/>
   </g>
   <g id="patch_52">
    <path d="M 90 220.887054 
L 338.013573 220.887054 
L 338.013573 218.463006 
L 90 218.463006 
z
" clip-path="url(#pa78effb08f)" style="fill: #0000ff"/>
   </g>
   <g id="patch_53">
    <path d="M 90 217.856994 
L 324.807087 217.856994 
L 324.807087 215.432946 
L 90 215.432946 
z
" clip-path="url(#pa78effb08f)" style="fill: #0000ff"/>
   </g>
   <g id="patch_54">
    <path d="M 90 214.826934 
L 435.800219 214.826934 
L 435.800219 212.402886 
L 90 212.402886 
z
" clip-path="url(#pa78effb08f)" style="fill: #0000ff"/>
   </g>
   <g id="patch_55">
    <path d="M 90 211.796874 
L 322.767205 211.796874 
L 322.767205 209.372826 
L 90 209.372826 
z
" clip-path="url(#pa78effb08f)" style="fill: #0000ff"/>
   </g>
   <g id="patch_56">
    <path d="M 90 208.766814 
L 332.857884 208.766814 
L 332.857884 206.342766 
L 90 206.342766 
z
" clip-path="url(#pa78effb08f)" style="fill: #0000ff"/>
   </g>
   <g id="patch_57">
    <path d="M 90 205.736754 
L 342.364511 205.736754 
L 342.364511 203.312705 
L 90 203.312705 
z
" clip-path="url(#pa78effb08f)" style="fill: #0000ff"/>
   </g>
   <g id="patch_58">
    <path d="M 90 202.706693 
L 295.717882 202.706693 
L 295.717882 200.282645 
L 90 200.282645 
z
" clip-path="url(#pa78effb08f)" style="fill: #0000ff"/>
   </g>
   <g id="patch_59">
    <path d="M 90 199.676633 
L 577.486855 199.676633 
L 577.486855 197.252585 
L 90 197.252585 
z
" clip-path="url(#pa78effb08f)" style="fill: #0000ff"/>
   </g>
   <g id="patch_60">
    <path d="M 90 196.646573 
L 276.113029 196.646573 
L 276.113029 194.222525 
L 90 194.222525 
z
" clip-path="url(#pa78effb08f)" style="fill: #0000ff"/>
   </g>
   <g id="patch_61">
    <path d="M 90 193.616513 
L 482.045177 193.616513 
L 482.045177 191.192465 
L 90 191.192465 
z
" clip-path="url(#pa78effb08f)" style="fill: #0000ff"/>
   </g>
   <g id="patch_62">
    <path d="M 90 190.586453 
L 494.298923 190.586453 
L 494.298923 188.162405 
L 90 188.162405 
z
" clip-path="url(#pa78effb08f)" style="fill: #0000ff"/>
   </g>
   <g id="patch_63">
    <path d="M 90 187.556393 
L 527.562248 187.556393 
L 527.562248 185.132345 
L 90 185.132345 
z
" clip-path="url(#pa78effb08f)" style="fill: #0000ff"/>
   </g>
   <g id="patch_64">
    <path d="M 90 184.526333 
L 299.837321 184.526333 
L 299.837321 182.102285 
L 90 182.102285 
z
" clip-path="url(#pa78effb08f)" style="fill: #0000ff"/>
   </g>
   <g id="patch_65">
    <path d="M 90 181.496273 
L 247.299804 181.496273 
L 247.299804 179.072224 
L 90 179.072224 
z
" clip-path="url(#pa78effb08f)" style="fill: #0000ff"/>
   </g>
   <g id="patch_66">
    <path d="M 90 178.466212 
L 380.441595 178.466212 
L 380.441595 176.042164 
L 90 176.042164 
z
" clip-path="url(#pa78effb08f)" style="fill: #0000ff"/>
   </g>
   <g id="patch_67">
    <path d="M 90 175.436152 
L 224.845098 175.436152 
L 224.845098 173.012104 
L 90 173.012104 
z
" clip-path="url(#pa78effb08f)" style="fill: #0000ff"/>
   </g>
   <g id="patch_68">
    <path d="M 90 172.406092 
L 415.370782 172.406092 
L 415.370782 169.982044 
L 90 169.982044 
z
" clip-path="url(#pa78effb08f)" style="fill: #0000ff"/>
   </g>
   <g id="patch_69">
    <path d="M 90 169.376032 
L 248.327016 169.376032 
L 248.327016 166.951984 
L 90 166.951984 
z
" clip-path="url(#pa78effb08f)" style="fill: #0000ff"/>
   </g>
   <g id="patch_70">
    <path d="M 90 166.345972 
L 263.87322 166.345972 
L 263.87322 163.921924 
L 90 163.921924 
z
" clip-path="url(#pa78effb08f)" style="fill: #0000ff"/>
   </g>
   <g id="patch_71">
    <path d="M 90 163.315912 
L 284.817561 163.315912 
L 284.817561 160.891864 
L 90 160.891864 
z
" clip-path="url(#pa78effb08f)" style="fill: #0000ff"/>
   </g>
   <g id="patch_72">
    <path d="M 90 160.285852 
L 375.319964 160.285852 
L 375.319964 157.861804 
L 90 157.861804 
z
" clip-path="url(#pa78effb08f)" style="fill: #0000ff"/>
   </g>
   <g id="patch_73">
    <path d="M 90 157.255792 
L 301.751103 157.255792 
L 301.751103 154.831743 
L 90 154.831743 
z
" clip-path="url(#pa78effb08f)" style="fill: #0000ff"/>
   </g>
   <g id="patch_74">
    <path d="M 90 154.225731 
L 510.292641 154.225731 
L 510.292641 151.801683 
L 90 151.801683 
z
" clip-path="url(#pa78effb08f)" style="fill: #0000ff"/>
   </g>
   <g id="patch_75">
    <path d="M 90 151.195671 
L 558.092075 151.195671 
L 558.092075 148.771623 
L 90 148.771623 
z
" clip-path="url(#pa78effb08f)" style="fill: #0000ff"/>
   </g>
   <g id="patch_76">
    <path d="M 90 148.165611 
L 314.845135 148.165611 
L 314.845135 145.741563 
L 90 145.741563 
z
" clip-path="url(#pa78effb08f)" style="fill: #0000ff"/>
   </g>
   <g id="patch_77">
    <path d="M 90 145.135551 
L 499.860816 145.135551 
L 499.860816 142.711503 
L 90 142.711503 
z
" clip-path="url(#pa78effb08f)" style="fill: #0000ff"/>
   </g>
   <g id="patch_78">
    <path d="M 90 142.105491 
L 536.376323 142.105491 
L 536.376323 139.681443 
L 90 139.681443 
z
" clip-path="url(#pa78effb08f)" style="fill: #0000ff"/>
   </g>
   <g id="patch_79">
    <path d="M 90 139.075431 
L 489.198789 139.075431 
L 489.198789 136.651383 
L 90 136.651383 
z
" clip-path="url(#pa78effb08f)" style="fill: #0000ff"/>
   </g>
   <g id="patch_80">
    <path d="M 90 136.045371 
L 586.987006 136.045371 
L 586.987006 133.621323 
L 90 133.621323 
z
" clip-path="url(#pa78effb08f)" style="fill: #0000ff"/>
   </g>
   <g id="patch_81">
    <path d="M 90 133.015311 
L 602.912799 133.015311 
L 602.912799 130.591263 
L 90 130.591263 
z
" clip-path="url(#pa78effb08f)" style="fill: #0000ff"/>
   </g>
   <g id="patch_82">
    <path d="M 90 129.985251 
L 241.473026 129.985251 
L 241.473026 127.561202 
L 90 127.561202 
z
" clip-path="url(#pa78effb08f)" style="fill: #0000ff"/>
   </g>
   <g id="patch_83">
    <path d="M 90 126.95519 
L 291.184223 126.95519 
L 291.184223 124.531142 
L 90 124.531142 
z
" clip-path="url(#pa78effb08f)" style="fill: #0000ff"/>
   </g>
   <g id="patch_84">
    <path d="M 90 123.92513 
L 441.929875 123.92513 
L 441.929875 121.501082 
L 90 121.501082 
z
" clip-path="url(#pa78effb08f)" style="fill: #0000ff"/>
   </g>
   <g id="patch_85">
    <path d="M 90 120.89507 
L 267.032546 120.89507 
L 267.032546 118.471022 
L 90 118.471022 
z
" clip-path="url(#pa78effb08f)" style="fill: #0000ff"/>
   </g>
   <g id="patch_86">
    <path d="M 90 117.86501 
L 578.486539 117.86501 
L 578.486539 115.440962 
L 90 115.440962 
z
" clip-path="url(#pa78effb08f)" style="fill: #0000ff"/>
   </g>
   <g id="patch_87">
    <path d="M 90 114.83495 
L 239.81495 114.83495 
L 239.81495 112.410902 
L 90 112.410902 
z
" clip-path="url(#pa78effb08f)" style="fill: #0000ff"/>
   </g>
   <g id="patch_88">
    <path d="M 90 111.80489 
L 516.941755 111.80489 
L 516.941755 109.380842 
L 90 109.380842 
z
" clip-path="url(#pa78effb08f)" style="fill: #0000ff"/>
   </g>
   <g id="patch_89">
    <path d="M 90 108.77483 
L 506.144309 108.77483 
L 506.144309 106.350782 
L 90 106.350782 
z
" clip-path="url(#pa78effb08f)" style="fill: #0000ff"/>
   </g>
   <g id="patch_90">
    <path d="M 90 105.74477 
L 548.89688 105.74477 
L 548.89688 103.320721 
L 90 103.320721 
z
" clip-path="url(#pa78effb08f)" style="fill: #0000ff"/>
   </g>
   <g id="patch_91">
    <path d="M 90 102.714709 
L 315.33342 102.714709 
L 315.33342 100.290661 
L 90 100.290661 
z
" clip-path="url(#pa78effb08f)" style="fill: #0000ff"/>
   </g>
   <g id="patch_92">
    <path d="M 90 99.684649 
L 432.49656 99.684649 
L 432.49656 97.260601 
L 90 97.260601 
z
" clip-path="url(#pa78effb08f)" style="fill: #0000ff"/>
   </g>
   <g id="patch_93">
    <path d="M 90 96.654589 
L 570.111468 96.654589 
L 570.111468 94.230541 
L 90 94.230541 
z
" clip-path="url(#pa78effb08f)" style="fill: #0000ff"/>
   </g>
   <g id="patch_94">
    <path d="M 90 93.624529 
L 326.212967 93.624529 
L 326.212967 91.200481 
L 90 91.200481 
z
" clip-path="url(#pa78effb08f)" style="fill: #0000ff"/>
   </g>
   <g id="patch_95">
    <path d="M 90 90.594469 
L 536.661094 90.594469 
L 536.661094 88.170421 
L 90 88.170421 
z
" clip-path="url(#pa78effb08f)" style="fill: #0000ff"/>
   </g>
   <g id="patch_96">
    <path d="M 90 87.564409 
L 607.262778 87.564409 
L 607.262778 85.140361 
L 90 85.140361 
z
" clip-path="url(#pa78effb08f)" style="fill: #0000ff"/>
   </g>
   <g id="patch_97">
    <path d="M 90 84.534349 
L 282.234261 84.534349 
L 282.234261 82.110301 
L 90 82.110301 
z
" clip-path="url(#pa78effb08f)" style="fill: #0000ff"/>
   </g>
   <g id="patch_98">
    <path d="M 90 81.504289 
L 444.093059 81.504289 
L 444.093059 79.08024 
L 90 79.08024 
z
" clip-path="url(#pa78effb08f)" style="fill: #0000ff"/>
   </g>
   <g id="patch_99">
    <path d="M 90 78.474228 
L 382.163611 78.474228 
L 382.163611 76.05018 
L 90 76.05018 
z
" clip-path="url(#pa78effb08f)" style="fill: #0000ff"/>
   </g>
   <g id="patch_100">
    <path d="M 90 75.444168 
L 578.360724 75.444168 
L 578.360724 73.02012 
L 90 73.02012 
z
" clip-path="url(#pa78effb08f)" style="fill: #0000ff"/>
   </g>
   <g id="patch_101">
    <path d="M 90 72.414108 
L 509.981142 72.414108 
L 509.981142 69.99006 
L 90 69.99006 
z
" clip-path="url(#pa78effb08f)" style="fill: #0000ff"/>
   </g>
   <g id="patch_102">
    <path d="M 90 69.384048 
L 449.079755 69.384048 
L 449.079755 66.96 
L 90 66.96 
z
" clip-path="url(#pa78effb08f)" style="fill: #0000ff"/>
   </g>
   <g id="matplotlib.axis_1">
    <g id="xtick_1">
     <g id="line2d_1">
      <path d="M 90 384.48 
L 90 51.84 
" clip-path="url(#pa78effb08f)" style="fill: none; stroke: #b0b0b0; stroke-width: 0.8; stroke-linecap: square"/>
     </g>
     <g id="line2d_2">
      <defs>
       <path id="m3e3a7360ab" d="M 0 0 
L 0 3.5 
" style="stroke: #000000; stroke-width: 0.8"/>
      </defs>
      <g>
       <use xlink:href="#m3e3a7360ab" x="90" y="384.48" style="stroke: #000000; stroke-width: 0.8"/>
      </g>
     </g>
     <g id="text_1">
      <!-- 0 -->
      <g transform="translate(86.81875 399.078438) scale(0.1 -0.1)">
       <defs>
        <path id="DejaVuSans-30" d="M 2034 4250 
Q 1547 4250 1301 3770 
Q 1056 3291 1056 2328 
Q 1056 1369 1301 889 
Q 1547 409 2034 409 
Q 2525 409 2770 889 
Q 3016 1369 3016 2328 
Q 3016 3291 2770 3770 
Q 2525 4250 2034 4250 
z
M 2034 4750 
Q 2819 4750 3233 4129 
Q 3647 3509 3647 2328 
Q 3647 1150 3233 529 
Q 2819 -91 2034 -91 
Q 1250 -91 836 529 
Q 422 1150 422 2328 
Q 422 3509 836 4129 
Q 1250 4750 2034 4750 
z
" transform="scale(0.015625)"/>
       </defs>
       <use xlink:href="#DejaVuSans-30"/>
      </g>
     </g>
    </g>
    <g id="xtick_2">
     <g id="line2d_3">
      <path d="M 156.563736 384.48 
L 156.563736 51.84 
" clip-path="url(#pa78effb08f)" style="fill: none; stroke: #b0b0b0; stroke-width: 0.8; stroke-linecap: square"/>
     </g>
     <g id="line2d_4">
      <g>
       <use xlink:href="#m3e3a7360ab" x="156.563736" y="384.48" style="stroke: #000000; stroke-width: 0.8"/>
      </g>
     </g>
     <g id="text_2">
      <!-- 10 -->
      <g transform="translate(150.201236 399.078438) scale(0.1 -0.1)">
       <defs>
        <path id="DejaVuSans-31" d="M 794 531 
L 1825 531 
L 1825 4091 
L 703 3866 
L 703 4441 
L 1819 4666 
L 2450 4666 
L 2450 531 
L 3481 531 
L 3481 0 
L 794 0 
L 794 531 
z
" transform="scale(0.015625)"/>
       </defs>
       <use xlink:href="#DejaVuSans-31"/>
       <use xlink:href="#DejaVuSans-30" x="63.623047"/>
      </g>
     </g>
    </g>
    <g id="xtick_3">
     <g id="line2d_5">
      <path d="M 223.127472 384.48 
L 223.127472 51.84 
" clip-path="url(#pa78effb08f)" style="fill: none; stroke: #b0b0b0; stroke-width: 0.8; stroke-linecap: square"/>
     </g>
     <g id="line2d_6">
      <g>
       <use xlink:href="#m3e3a7360ab" x="223.127472" y="384.48" style="stroke: #000000; stroke-width: 0.8"/>
      </g>
     </g>
     <g id="text_3">
      <!-- 20 -->
      <g transform="translate(216.764972 399.078438) scale(0.1 -0.1)">
       <defs>
        <path id="DejaVuSans-32" d="M 1228 531 
L 3431 531 
L 3431 0 
L 469 0 
L 469 531 
Q 828 903 1448 1529 
Q 2069 2156 2228 2338 
Q 2531 2678 2651 2914 
Q 2772 3150 2772 3378 
Q 2772 3750 2511 3984 
Q 2250 4219 1831 4219 
Q 1534 4219 1204 4116 
Q 875 4013 500 3803 
L 500 4441 
Q 881 4594 1212 4672 
Q 1544 4750 1819 4750 
Q 2544 4750 2975 4387 
Q 3406 4025 3406 3419 
Q 3406 3131 3298 2873 
Q 3191 2616 2906 2266 
Q 2828 2175 2409 1742 
Q 1991 1309 1228 531 
z
" transform="scale(0.015625)"/>
       </defs>
       <use xlink:href="#DejaVuSans-32"/>
       <use xlink:href="#DejaVuSans-30" x="63.623047"/>
      </g>
     </g>
    </g>
    <g id="xtick_4">
     <g id="line2d_7">
      <path d="M 289.691208 384.48 
L 289.691208 51.84 
" clip-path="url(#pa78effb08f)" style="fill: none; stroke: #b0b0b0; stroke-width: 0.8; stroke-linecap: square"/>
     </g>
     <g id="line2d_8">
      <g>
       <use xlink:href="#m3e3a7360ab" x="289.691208" y="384.48" style="stroke: #000000; stroke-width: 0.8"/>
      </g>
     </g>
     <g id="text_4">
      <!-- 30 -->
      <g transform="translate(283.328708 399.078438) scale(0.1 -0.1)">
       <defs>
        <path id="DejaVuSans-33" d="M 2597 2516 
Q 3050 2419 3304 2112 
Q 3559 1806 3559 1356 
Q 3559 666 3084 287 
Q 2609 -91 1734 -91 
Q 1441 -91 1130 -33 
Q 819 25 488 141 
L 488 750 
Q 750 597 1062 519 
Q 1375 441 1716 441 
Q 2309 441 2620 675 
Q 2931 909 2931 1356 
Q 2931 1769 2642 2001 
Q 2353 2234 1838 2234 
L 1294 2234 
L 1294 2753 
L 1863 2753 
Q 2328 2753 2575 2939 
Q 2822 3125 2822 3475 
Q 2822 3834 2567 4026 
Q 2313 4219 1838 4219 
Q 1578 4219 1281 4162 
Q 984 4106 628 3988 
L 628 4550 
Q 988 4650 1302 4700 
Q 1616 4750 1894 4750 
Q 2613 4750 3031 4423 
Q 3450 4097 3450 3541 
Q 3450 3153 3228 2886 
Q 3006 2619 2597 2516 
z
" transform="scale(0.015625)"/>
       </defs>
       <use xlink:href="#DejaVuSans-33"/>
       <use xlink:href="#DejaVuSans-30" x="63.623047"/>
      </g>
     </g>
    </g>
    <g id="xtick_5">
     <g id="line2d_9">
      <path d="M 356.254944 384.48 
L 356.254944 51.84 
" clip-path="url(#pa78effb08f)" style="fill: none; stroke: #b0b0b0; stroke-width: 0.8; stroke-linecap: square"/>
     </g>
     <g id="line2d_10">
      <g>
       <use xlink:href="#m3e3a7360ab" x="356.254944" y="384.48" style="stroke: #000000; stroke-width: 0.8"/>
      </g>
     </g>
     <g id="text_5">
      <!-- 40 -->
      <g transform="translate(349.892444 399.078438) scale(0.1 -0.1)">
       <defs>
        <path id="DejaVuSans-34" d="M 2419 4116 
L 825 1625 
L 2419 1625 
L 2419 4116 
z
M 2253 4666 
L 3047 4666 
L 3047 1625 
L 3713 1625 
L 3713 1100 
L 3047 1100 
L 3047 0 
L 2419 0 
L 2419 1100 
L 313 1100 
L 313 1709 
L 2253 4666 
z
" transform="scale(0.015625)"/>
       </defs>
       <use xlink:href="#DejaVuSans-34"/>
       <use xlink:href="#DejaVuSans-30" x="63.623047"/>
      </g>
     </g>
    </g>
    <g id="xtick_6">
     <g id="line2d_11">
      <path d="M 422.81868 384.48 
L 422.81868 51.84 
" clip-path="url(#pa78effb08f)" style="fill: none; stroke: #b0b0b0; stroke-width: 0.8; stroke-linecap: square"/>
     </g>
     <g id="line2d_12">
      <g>
       <use xlink:href="#m3e3a7360ab" x="422.81868" y="384.48" style="stroke: #000000; stroke-width: 0.8"/>
      </g>
     </g>
     <g id="text_6">
      <!-- 50 -->
      <g transform="translate(416.45618 399.078438) scale(0.1 -0.1)">
       <defs>
        <path id="DejaVuSans-35" d="M 691 4666 
L 3169 4666 
L 3169 4134 
L 1269 4134 
L 1269 2991 
Q 1406 3038 1543 3061 
Q 1681 3084 1819 3084 
Q 2600 3084 3056 2656 
Q 3513 2228 3513 1497 
Q 3513 744 3044 326 
Q 2575 -91 1722 -91 
Q 1428 -91 1123 -41 
Q 819 9 494 109 
L 494 744 
Q 775 591 1075 516 
Q 1375 441 1709 441 
Q 2250 441 2565 725 
Q 2881 1009 2881 1497 
Q 2881 1984 2565 2268 
Q 2250 2553 1709 2553 
Q 1456 2553 1204 2497 
Q 953 2441 691 2322 
L 691 4666 
z
" transform="scale(0.015625)"/>
       </defs>
       <use xlink:href="#DejaVuSans-35"/>
       <use xlink:href="#DejaVuSans-30" x="63.623047"/>
      </g>
     </g>
    </g>
    <g id="xtick_7">
     <g id="line2d_13">
      <path d="M 489.382416 384.48 
L 489.382416 51.84 
" clip-path="url(#pa78effb08f)" style="fill: none; stroke: #b0b0b0; stroke-width: 0.8; stroke-linecap: square"/>
     </g>
     <g id="line2d_14">
      <g>
       <use xlink:href="#m3e3a7360ab" x="489.382416" y="384.48" style="stroke: #000000; stroke-width: 0.8"/>
      </g>
     </g>
     <g id="text_7">
      <!-- 60 -->
      <g transform="translate(483.019916 399.078438) scale(0.1 -0.1)">
       <defs>
        <path id="DejaVuSans-36" d="M 2113 2584 
Q 1688 2584 1439 2293 
Q 1191 2003 1191 1497 
Q 1191 994 1439 701 
Q 1688 409 2113 409 
Q 2538 409 2786 701 
Q 3034 994 3034 1497 
Q 3034 2003 2786 2293 
Q 2538 2584 2113 2584 
z
M 3366 4563 
L 3366 3988 
Q 3128 4100 2886 4159 
Q 2644 4219 2406 4219 
Q 1781 4219 1451 3797 
Q 1122 3375 1075 2522 
Q 1259 2794 1537 2939 
Q 1816 3084 2150 3084 
Q 2853 3084 3261 2657 
Q 3669 2231 3669 1497 
Q 3669 778 3244 343 
Q 2819 -91 2113 -91 
Q 1303 -91 875 529 
Q 447 1150 447 2328 
Q 447 3434 972 4092 
Q 1497 4750 2381 4750 
Q 2619 4750 2861 4703 
Q 3103 4656 3366 4563 
z
" transform="scale(0.015625)"/>
       </defs>
       <use xlink:href="#DejaVuSans-36"/>
       <use xlink:href="#DejaVuSans-30" x="63.623047"/>
      </g>
     </g>
    </g>
    <g id="xtick_8">
     <g id="line2d_15">
      <path d="M 555.946152 384.48 
L 555.946152 51.84 
" clip-path="url(#pa78effb08f)" style="fill: none; stroke: #b0b0b0; stroke-width: 0.8; stroke-linecap: square"/>
     </g>
     <g id="line2d_16">
      <g>
       <use xlink:href="#m3e3a7360ab" x="555.946152" y="384.48" style="stroke: #000000; stroke-width: 0.8"/>
      </g>
     </g>
     <g id="text_8">
      <!-- 70 -->
      <g transform="translate(549.583652 399.078438) scale(0.1 -0.1)">
       <defs>
        <path id="DejaVuSans-37" d="M 525 4666 
L 3525 4666 
L 3525 4397 
L 1831 0 
L 1172 0 
L 2766 4134 
L 525 4134 
L 525 4666 
z
" transform="scale(0.015625)"/>
       </defs>
       <use xlink:href="#DejaVuSans-37"/>
       <use xlink:href="#DejaVuSans-30" x="63.623047"/>
      </g>
     </g>
    </g>
    <g id="xtick_9">
     <g id="line2d_17">
      <path d="M 622.509888 384.48 
L 622.509888 51.84 
" clip-path="url(#pa78effb08f)" style="fill: none; stroke: #b0b0b0; stroke-width: 0.8; stroke-linecap: square"/>
     </g>
     <g id="line2d_18">
      <g>
       <use xlink:href="#m3e3a7360ab" x="622.509888" y="384.48" style="stroke: #000000; stroke-width: 0.8"/>
      </g>
     </g>
     <g id="text_9">
      <!-- 80 -->
      <g transform="translate(616.147388 399.078438) scale(0.1 -0.1)">
       <defs>
        <path id="DejaVuSans-38" d="M 2034 2216 
Q 1584 2216 1326 1975 
Q 1069 1734 1069 1313 
Q 1069 891 1326 650 
Q 1584 409 2034 409 
Q 2484 409 2743 651 
Q 3003 894 3003 1313 
Q 3003 1734 2745 1975 
Q 2488 2216 2034 2216 
z
M 1403 2484 
Q 997 2584 770 2862 
Q 544 3141 544 3541 
Q 544 4100 942 4425 
Q 1341 4750 2034 4750 
Q 2731 4750 3128 4425 
Q 3525 4100 3525 3541 
Q 3525 3141 3298 2862 
Q 3072 2584 2669 2484 
Q 3125 2378 3379 2068 
Q 3634 1759 3634 1313 
Q 3634 634 3220 271 
Q 2806 -91 2034 -91 
Q 1263 -91 848 271 
Q 434 634 434 1313 
Q 434 1759 690 2068 
Q 947 2378 1403 2484 
z
M 1172 3481 
Q 1172 3119 1398 2916 
Q 1625 2713 2034 2713 
Q 2441 2713 2670 2916 
Q 2900 3119 2900 3481 
Q 2900 3844 2670 4047 
Q 2441 4250 2034 4250 
Q 1625 4250 1398 4047 
Q 1172 3844 1172 3481 
z
" transform="scale(0.015625)"/>
       </defs>
       <use xlink:href="#DejaVuSans-38"/>
       <use xlink:href="#DejaVuSans-30" x="63.623047"/>
      </g>
     </g>
    </g>
    <g id="text_10">
     <!-- Recognition Score (Lower is Better) -->
     <g transform="translate(280.764063 412.756563) scale(0.1 -0.1)">
      <defs>
       <path id="DejaVuSans-52" d="M 2841 2188 
Q 3044 2119 3236 1894 
Q 3428 1669 3622 1275 
L 4263 0 
L 3584 0 
L 2988 1197 
Q 2756 1666 2539 1819 
Q 2322 1972 1947 1972 
L 1259 1972 
L 1259 0 
L 628 0 
L 628 4666 
L 2053 4666 
Q 2853 4666 3247 4331 
Q 3641 3997 3641 3322 
Q 3641 2881 3436 2590 
Q 3231 2300 2841 2188 
z
M 1259 4147 
L 1259 2491 
L 2053 2491 
Q 2509 2491 2742 2702 
Q 2975 2913 2975 3322 
Q 2975 3731 2742 3939 
Q 2509 4147 2053 4147 
L 1259 4147 
z
" transform="scale(0.015625)"/>
       <path id="DejaVuSans-65" d="M 3597 1894 
L 3597 1613 
L 953 1613 
Q 991 1019 1311 708 
Q 1631 397 2203 397 
Q 2534 397 2845 478 
Q 3156 559 3463 722 
L 3463 178 
Q 3153 47 2828 -22 
Q 2503 -91 2169 -91 
Q 1331 -91 842 396 
Q 353 884 353 1716 
Q 353 2575 817 3079 
Q 1281 3584 2069 3584 
Q 2775 3584 3186 3129 
Q 3597 2675 3597 1894 
z
M 3022 2063 
Q 3016 2534 2758 2815 
Q 2500 3097 2075 3097 
Q 1594 3097 1305 2825 
Q 1016 2553 972 2059 
L 3022 2063 
z
" transform="scale(0.015625)"/>
       <path id="DejaVuSans-63" d="M 3122 3366 
L 3122 2828 
Q 2878 2963 2633 3030 
Q 2388 3097 2138 3097 
Q 1578 3097 1268 2742 
Q 959 2388 959 1747 
Q 959 1106 1268 751 
Q 1578 397 2138 397 
Q 2388 397 2633 464 
Q 2878 531 3122 666 
L 3122 134 
Q 2881 22 2623 -34 
Q 2366 -91 2075 -91 
Q 1284 -91 818 406 
Q 353 903 353 1747 
Q 353 2603 823 3093 
Q 1294 3584 2113 3584 
Q 2378 3584 2631 3529 
Q 2884 3475 3122 3366 
z
" transform="scale(0.015625)"/>
       <path id="DejaVuSans-6f" d="M 1959 3097 
Q 1497 3097 1228 2736 
Q 959 2375 959 1747 
Q 959 1119 1226 758 
Q 1494 397 1959 397 
Q 2419 397 2687 759 
Q 2956 1122 2956 1747 
Q 2956 2369 2687 2733 
Q 2419 3097 1959 3097 
z
M 1959 3584 
Q 2709 3584 3137 3096 
Q 3566 2609 3566 1747 
Q 3566 888 3137 398 
Q 2709 -91 1959 -91 
Q 1206 -91 779 398 
Q 353 888 353 1747 
Q 353 2609 779 3096 
Q 1206 3584 1959 3584 
z
" transform="scale(0.015625)"/>
       <path id="DejaVuSans-67" d="M 2906 1791 
Q 2906 2416 2648 2759 
Q 2391 3103 1925 3103 
Q 1463 3103 1205 2759 
Q 947 2416 947 1791 
Q 947 1169 1205 825 
Q 1463 481 1925 481 
Q 2391 481 2648 825 
Q 2906 1169 2906 1791 
z
M 3481 434 
Q 3481 -459 3084 -895 
Q 2688 -1331 1869 -1331 
Q 1566 -1331 1297 -1286 
Q 1028 -1241 775 -1147 
L 775 -588 
Q 1028 -725 1275 -790 
Q 1522 -856 1778 -856 
Q 2344 -856 2625 -561 
Q 2906 -266 2906 331 
L 2906 616 
Q 2728 306 2450 153 
Q 2172 0 1784 0 
Q 1141 0 747 490 
Q 353 981 353 1791 
Q 353 2603 747 3093 
Q 1141 3584 1784 3584 
Q 2172 3584 2450 3431 
Q 2728 3278 2906 2969 
L 2906 3500 
L 3481 3500 
L 3481 434 
z
" transform="scale(0.015625)"/>
       <path id="DejaVuSans-6e" d="M 3513 2113 
L 3513 0 
L 2938 0 
L 2938 2094 
Q 2938 2591 2744 2837 
Q 2550 3084 2163 3084 
Q 1697 3084 1428 2787 
Q 1159 2491 1159 1978 
L 1159 0 
L 581 0 
L 581 3500 
L 1159 3500 
L 1159 2956 
Q 1366 3272 1645 3428 
Q 1925 3584 2291 3584 
Q 2894 3584 3203 3211 
Q 3513 2838 3513 2113 
z
" transform="scale(0.015625)"/>
       <path id="DejaVuSans-69" d="M 603 3500 
L 1178 3500 
L 1178 0 
L 603 0 
L 603 3500 
z
M 603 4863 
L 1178 4863 
L 1178 4134 
L 603 4134 
L 603 4863 
z
" transform="scale(0.015625)"/>
       <path id="DejaVuSans-74" d="M 1172 4494 
L 1172 3500 
L 2356 3500 
L 2356 3053 
L 1172 3053 
L 1172 1153 
Q 1172 725 1289 603 
Q 1406 481 1766 481 
L 2356 481 
L 2356 0 
L 1766 0 
Q 1100 0 847 248 
Q 594 497 594 1153 
L 594 3053 
L 172 3053 
L 172 3500 
L 594 3500 
L 594 4494 
L 1172 4494 
z
" transform="scale(0.015625)"/>
       <path id="DejaVuSans-20" transform="scale(0.015625)"/>
       <path id="DejaVuSans-53" d="M 3425 4513 
L 3425 3897 
Q 3066 4069 2747 4153 
Q 2428 4238 2131 4238 
Q 1616 4238 1336 4038 
Q 1056 3838 1056 3469 
Q 1056 3159 1242 3001 
Q 1428 2844 1947 2747 
L 2328 2669 
Q 3034 2534 3370 2195 
Q 3706 1856 3706 1288 
Q 3706 609 3251 259 
Q 2797 -91 1919 -91 
Q 1588 -91 1214 -16 
Q 841 59 441 206 
L 441 856 
Q 825 641 1194 531 
Q 1563 422 1919 422 
Q 2459 422 2753 634 
Q 3047 847 3047 1241 
Q 3047 1584 2836 1778 
Q 2625 1972 2144 2069 
L 1759 2144 
Q 1053 2284 737 2584 
Q 422 2884 422 3419 
Q 422 4038 858 4394 
Q 1294 4750 2059 4750 
Q 2388 4750 2728 4690 
Q 3069 4631 3425 4513 
z
" transform="scale(0.015625)"/>
       <path id="DejaVuSans-72" d="M 2631 2963 
Q 2534 3019 2420 3045 
Q 2306 3072 2169 3072 
Q 1681 3072 1420 2755 
Q 1159 2438 1159 1844 
L 1159 0 
L 581 0 
L 581 3500 
L 1159 3500 
L 1159 2956 
Q 1341 3275 1631 3429 
Q 1922 3584 2338 3584 
Q 2397 3584 2469 3576 
Q 2541 3569 2628 3553 
L 2631 2963 
z
" transform="scale(0.015625)"/>
       <path id="DejaVuSans-28" d="M 1984 4856 
Q 1566 4138 1362 3434 
Q 1159 2731 1159 2009 
Q 1159 1288 1364 580 
Q 1569 -128 1984 -844 
L 1484 -844 
Q 1016 -109 783 600 
Q 550 1309 550 2009 
Q 550 2706 781 3412 
Q 1013 4119 1484 4856 
L 1984 4856 
z
" transform="scale(0.015625)"/>
       <path id="DejaVuSans-4c" d="M 628 4666 
L 1259 4666 
L 1259 531 
L 3531 531 
L 3531 0 
L 628 0 
L 628 4666 
z
" transform="scale(0.015625)"/>
       <path id="DejaVuSans-77" d="M 269 3500 
L 844 3500 
L 1563 769 
L 2278 3500 
L 2956 3500 
L 3675 769 
L 4391 3500 
L 4966 3500 
L 4050 0 
L 3372 0 
L 2619 2869 
L 1863 0 
L 1184 0 
L 269 3500 
z
" transform="scale(0.015625)"/>
       <path id="DejaVuSans-73" d="M 2834 3397 
L 2834 2853 
Q 2591 2978 2328 3040 
Q 2066 3103 1784 3103 
Q 1356 3103 1142 2972 
Q 928 2841 928 2578 
Q 928 2378 1081 2264 
Q 1234 2150 1697 2047 
L 1894 2003 
Q 2506 1872 2764 1633 
Q 3022 1394 3022 966 
Q 3022 478 2636 193 
Q 2250 -91 1575 -91 
Q 1294 -91 989 -36 
Q 684 19 347 128 
L 347 722 
Q 666 556 975 473 
Q 1284 391 1588 391 
Q 1994 391 2212 530 
Q 2431 669 2431 922 
Q 2431 1156 2273 1281 
Q 2116 1406 1581 1522 
L 1381 1569 
Q 847 1681 609 1914 
Q 372 2147 372 2553 
Q 372 3047 722 3315 
Q 1072 3584 1716 3584 
Q 2034 3584 2315 3537 
Q 2597 3491 2834 3397 
z
" transform="scale(0.015625)"/>
       <path id="DejaVuSans-42" d="M 1259 2228 
L 1259 519 
L 2272 519 
Q 2781 519 3026 730 
Q 3272 941 3272 1375 
Q 3272 1813 3026 2020 
Q 2781 2228 2272 2228 
L 1259 2228 
z
M 1259 4147 
L 1259 2741 
L 2194 2741 
Q 2656 2741 2882 2914 
Q 3109 3088 3109 3444 
Q 3109 3797 2882 3972 
Q 2656 4147 2194 4147 
L 1259 4147 
z
M 628 4666 
L 2241 4666 
Q 2963 4666 3353 4366 
Q 3744 4066 3744 3513 
Q 3744 3084 3544 2831 
Q 3344 2578 2956 2516 
Q 3422 2416 3680 2098 
Q 3938 1781 3938 1306 
Q 3938 681 3513 340 
Q 3088 0 2303 0 
L 628 0 
L 628 4666 
z
" transform="scale(0.015625)"/>
       <path id="DejaVuSans-29" d="M 513 4856 
L 1013 4856 
Q 1481 4119 1714 3412 
Q 1947 2706 1947 2009 
Q 1947 1309 1714 600 
Q 1481 -109 1013 -844 
L 513 -844 
Q 928 -128 1133 580 
Q 1338 1288 1338 2009 
Q 1338 2731 1133 3434 
Q 928 4138 513 4856 
z
" transform="scale(0.015625)"/>
      </defs>
      <use xlink:href="#DejaVuSans-52"/>
      <use xlink:href="#DejaVuSans-65" x="64.982422"/>
      <use xlink:href="#DejaVuSans-63" x="126.505859"/>
      <use xlink:href="#DejaVuSans-6f" x="181.486328"/>
      <use xlink:href="#DejaVuSans-67" x="242.667969"/>
      <use xlink:href="#DejaVuSans-6e" x="306.144531"/>
      <use xlink:href="#DejaVuSans-69" x="369.523438"/>
      <use xlink:href="#DejaVuSans-74" x="397.306641"/>
      <use xlink:href="#DejaVuSans-69" x="436.515625"/>
      <use xlink:href="#DejaVuSans-6f" x="464.298828"/>
      <use xlink:href="#DejaVuSans-6e" x="525.480469"/>
      <use xlink:href="#DejaVuSans-20" x="588.859375"/>
      <use xlink:href="#DejaVuSans-53" x="620.646484"/>
      <use xlink:href="#DejaVuSans-63" x="684.123047"/>
      <use xlink:href="#DejaVuSans-6f" x="739.103516"/>
      <use xlink:href="#DejaVuSans-72" x="800.285156"/>
      <use xlink:href="#DejaVuSans-65" x="839.148438"/>
      <use xlink:href="#DejaVuSans-20" x="900.671875"/>
      <use xlink:href="#DejaVuSans-28" x="932.458984"/>
      <use xlink:href="#DejaVuSans-4c" x="971.472656"/>
      <use xlink:href="#DejaVuSans-6f" x="1025.435547"/>
      <use xlink:href="#DejaVuSans-77" x="1086.617188"/>
      <use xlink:href="#DejaVuSans-65" x="1168.404297"/>
      <use xlink:href="#DejaVuSans-72" x="1229.927734"/>
      <use xlink:href="#DejaVuSans-20" x="1271.041016"/>
      <use xlink:href="#DejaVuSans-69" x="1302.828125"/>
      <use xlink:href="#DejaVuSans-73" x="1330.611328"/>
      <use xlink:href="#DejaVuSans-20" x="1382.710938"/>
      <use xlink:href="#DejaVuSans-42" x="1414.498047"/>
      <use xlink:href="#DejaVuSans-65" x="1483.101562"/>
      <use xlink:href="#DejaVuSans-74" x="1544.625"/>
      <use xlink:href="#DejaVuSans-74" x="1583.833984"/>
      <use xlink:href="#DejaVuSans-65" x="1623.042969"/>
      <use xlink:href="#DejaVuSans-72" x="1684.566406"/>
      <use xlink:href="#DejaVuSans-29" x="1725.679688"/>
     </g>
    </g>
   </g>
   <g id="matplotlib.axis_2">
    <g id="ytick_1">
     <g id="line2d_19">
      <defs>
       <path id="m9196b6bbaa" d="M 0 0 
L -3.5 0 
" style="stroke: #000000; stroke-width: 0.8"/>
      </defs>
      <g>
       <use xlink:href="#m9196b6bbaa" x="90" y="371.178036" style="stroke: #000000; stroke-width: 0.8"/>
      </g>
     </g>
     <g id="text_11">
      <!-- 0 -->
      <g transform="translate(76.6375 374.977255) scale(0.1 -0.1)">
       <use xlink:href="#DejaVuSans-30"/>
      </g>
     </g>
    </g>
    <g id="ytick_2">
     <g id="line2d_20">
      <g>
       <use xlink:href="#m9196b6bbaa" x="90" y="310.576834" style="stroke: #000000; stroke-width: 0.8"/>
      </g>
     </g>
     <g id="text_12">
      <!-- 20 -->
      <g transform="translate(70.275 314.376052) scale(0.1 -0.1)">
       <use xlink:href="#DejaVuSans-32"/>
       <use xlink:href="#DejaVuSans-30" x="63.623047"/>
      </g>
     </g>
    </g>
    <g id="ytick_3">
     <g id="line2d_21">
      <g>
       <use xlink:href="#m9196b6bbaa" x="90" y="249.975631" style="stroke: #000000; stroke-width: 0.8"/>
      </g>
     </g>
     <g id="text_13">
      <!-- 40 -->
      <g transform="translate(70.275 253.77485) scale(0.1 -0.1)">
       <use xlink:href="#DejaVuSans-34"/>
       <use xlink:href="#DejaVuSans-30" x="63.623047"/>
      </g>
     </g>
    </g>
    <g id="ytick_4">
     <g id="line2d_22">
      <g>
       <use xlink:href="#m9196b6bbaa" x="90" y="189.374429" style="stroke: #000000; stroke-width: 0.8"/>
      </g>
     </g>
     <g id="text_14">
      <!-- 60 -->
      <g transform="translate(70.275 193.173648) scale(0.1 -0.1)">
       <use xlink:href="#DejaVuSans-36"/>
       <use xlink:href="#DejaVuSans-30" x="63.623047"/>
      </g>
     </g>
    </g>
    <g id="ytick_5">
     <g id="line2d_23">
      <g>
       <use xlink:href="#m9196b6bbaa" x="90" y="128.773226" style="stroke: #000000; stroke-width: 0.8"/>
      </g>
     </g>
     <g id="text_15">
      <!-- 80 -->
      <g transform="translate(70.275 132.572445) scale(0.1 -0.1)">
       <use xlink:href="#DejaVuSans-38"/>
       <use xlink:href="#DejaVuSans-30" x="63.623047"/>
      </g>
     </g>
    </g>
    <g id="ytick_6">
     <g id="line2d_24">
      <g>
       <use xlink:href="#m9196b6bbaa" x="90" y="68.172024" style="stroke: #000000; stroke-width: 0.8"/>
      </g>
     </g>
     <g id="text_16">
      <!-- 100 -->
      <g transform="translate(63.9125 71.971243) scale(0.1 -0.1)">
       <use xlink:href="#DejaVuSans-31"/>
       <use xlink:href="#DejaVuSans-30" x="63.623047"/>
       <use xlink:href="#DejaVuSans-30" x="127.246094"/>
      </g>
     </g>
    </g>
    <g id="text_17">
     <!-- Image Number -->
     <g transform="translate(57.832812 255.495156) rotate(-90) scale(0.1 -0.1)">
      <defs>
       <path id="DejaVuSans-49" d="M 628 4666 
L 1259 4666 
L 1259 0 
L 628 0 
L 628 4666 
z
" transform="scale(0.015625)"/>
       <path id="DejaVuSans-6d" d="M 3328 2828 
Q 3544 3216 3844 3400 
Q 4144 3584 4550 3584 
Q 5097 3584 5394 3201 
Q 5691 2819 5691 2113 
L 5691 0 
L 5113 0 
L 5113 2094 
Q 5113 2597 4934 2840 
Q 4756 3084 4391 3084 
Q 3944 3084 3684 2787 
Q 3425 2491 3425 1978 
L 3425 0 
L 2847 0 
L 2847 2094 
Q 2847 2600 2669 2842 
Q 2491 3084 2119 3084 
Q 1678 3084 1418 2786 
Q 1159 2488 1159 1978 
L 1159 0 
L 581 0 
L 581 3500 
L 1159 3500 
L 1159 2956 
Q 1356 3278 1631 3431 
Q 1906 3584 2284 3584 
Q 2666 3584 2933 3390 
Q 3200 3197 3328 2828 
z
" transform="scale(0.015625)"/>
       <path id="DejaVuSans-61" d="M 2194 1759 
Q 1497 1759 1228 1600 
Q 959 1441 959 1056 
Q 959 750 1161 570 
Q 1363 391 1709 391 
Q 2188 391 2477 730 
Q 2766 1069 2766 1631 
L 2766 1759 
L 2194 1759 
z
M 3341 1997 
L 3341 0 
L 2766 0 
L 2766 531 
Q 2569 213 2275 61 
Q 1981 -91 1556 -91 
Q 1019 -91 701 211 
Q 384 513 384 1019 
Q 384 1609 779 1909 
Q 1175 2209 1959 2209 
L 2766 2209 
L 2766 2266 
Q 2766 2663 2505 2880 
Q 2244 3097 1772 3097 
Q 1472 3097 1187 3025 
Q 903 2953 641 2809 
L 641 3341 
Q 956 3463 1253 3523 
Q 1550 3584 1831 3584 
Q 2591 3584 2966 3190 
Q 3341 2797 3341 1997 
z
" transform="scale(0.015625)"/>
       <path id="DejaVuSans-4e" d="M 628 4666 
L 1478 4666 
L 3547 763 
L 3547 4666 
L 4159 4666 
L 4159 0 
L 3309 0 
L 1241 3903 
L 1241 0 
L 628 0 
L 628 4666 
z
" transform="scale(0.015625)"/>
       <path id="DejaVuSans-75" d="M 544 1381 
L 544 3500 
L 1119 3500 
L 1119 1403 
Q 1119 906 1312 657 
Q 1506 409 1894 409 
Q 2359 409 2629 706 
Q 2900 1003 2900 1516 
L 2900 3500 
L 3475 3500 
L 3475 0 
L 2900 0 
L 2900 538 
Q 2691 219 2414 64 
Q 2138 -91 1772 -91 
Q 1169 -91 856 284 
Q 544 659 544 1381 
z
M 1991 3584 
L 1991 3584 
z
" transform="scale(0.015625)"/>
       <path id="DejaVuSans-62" d="M 3116 1747 
Q 3116 2381 2855 2742 
Q 2594 3103 2138 3103 
Q 1681 3103 1420 2742 
Q 1159 2381 1159 1747 
Q 1159 1113 1420 752 
Q 1681 391 2138 391 
Q 2594 391 2855 752 
Q 3116 1113 3116 1747 
z
M 1159 2969 
Q 1341 3281 1617 3432 
Q 1894 3584 2278 3584 
Q 2916 3584 3314 3078 
Q 3713 2572 3713 1747 
Q 3713 922 3314 415 
Q 2916 -91 2278 -91 
Q 1894 -91 1617 61 
Q 1341 213 1159 525 
L 1159 0 
L 581 0 
L 581 4863 
L 1159 4863 
L 1159 2969 
z
" transform="scale(0.015625)"/>
      </defs>
      <use xlink:href="#DejaVuSans-49"/>
      <use xlink:href="#DejaVuSans-6d" x="29.492188"/>
      <use xlink:href="#DejaVuSans-61" x="126.904297"/>
      <use xlink:href="#DejaVuSans-67" x="188.183594"/>
      <use xlink:href="#DejaVuSans-65" x="251.660156"/>
      <use xlink:href="#DejaVuSans-20" x="313.183594"/>
      <use xlink:href="#DejaVuSans-4e" x="344.970703"/>
      <use xlink:href="#DejaVuSans-75" x="419.775391"/>
      <use xlink:href="#DejaVuSans-6d" x="483.154297"/>
      <use xlink:href="#DejaVuSans-62" x="580.566406"/>
      <use xlink:href="#DejaVuSans-65" x="644.042969"/>
      <use xlink:href="#DejaVuSans-72" x="705.566406"/>
     </g>
    </g>
   </g>
   <g id="patch_103">
    <path d="M 90 384.48 
L 90 51.84 
" style="fill: none; stroke: #000000; stroke-width: 0.8; stroke-linejoin: miter; stroke-linecap: square"/>
   </g>
   <g id="patch_104">
    <path d="M 648 384.48 
L 648 51.84 
" style="fill: none; stroke: #000000; stroke-width: 0.8; stroke-linejoin: miter; stroke-linecap: square"/>
   </g>
   <g id="patch_105">
    <path d="M 90 384.48 
L 648 384.48 
" style="fill: none; stroke: #000000; stroke-width: 0.8; stroke-linejoin: miter; stroke-linecap: square"/>
   </g>
   <g id="patch_106">
    <path d="M 90 51.84 
L 648 51.84 
" style="fill: none; stroke: #000000; stroke-width: 0.8; stroke-linejoin: miter; stroke-linecap: square"/>
   </g>
   <g id="text_18">
    <!-- Recognition Accuracy for 100 Images -->
    <g transform="translate(257.025937 45.84) scale(0.12 -0.12)">
     <defs>
      <path id="DejaVuSans-41" d="M 2188 4044 
L 1331 1722 
L 3047 1722 
L 2188 4044 
z
M 1831 4666 
L 2547 4666 
L 4325 0 
L 3669 0 
L 3244 1197 
L 1141 1197 
L 716 0 
L 50 0 
L 1831 4666 
z
" transform="scale(0.015625)"/>
      <path id="DejaVuSans-79" d="M 2059 -325 
Q 1816 -950 1584 -1140 
Q 1353 -1331 966 -1331 
L 506 -1331 
L 506 -850 
L 844 -850 
Q 1081 -850 1212 -737 
Q 1344 -625 1503 -206 
L 1606 56 
L 191 3500 
L 800 3500 
L 1894 763 
L 2988 3500 
L 3597 3500 
L 2059 -325 
z
" transform="scale(0.015625)"/>
      <path id="DejaVuSans-66" d="M 2375 4863 
L 2375 4384 
L 1825 4384 
Q 1516 4384 1395 4259 
Q 1275 4134 1275 3809 
L 1275 3500 
L 2222 3500 
L 2222 3053 
L 1275 3053 
L 1275 0 
L 697 0 
L 697 3053 
L 147 3053 
L 147 3500 
L 697 3500 
L 697 3744 
Q 697 4328 969 4595 
Q 1241 4863 1831 4863 
L 2375 4863 
z
" transform="scale(0.015625)"/>
     </defs>
     <use xlink:href="#DejaVuSans-52"/>
     <use xlink:href="#DejaVuSans-65" x="64.982422"/>
     <use xlink:href="#DejaVuSans-63" x="126.505859"/>
     <use xlink:href="#DejaVuSans-6f" x="181.486328"/>
     <use xlink:href="#DejaVuSans-67" x="242.667969"/>
     <use xlink:href="#DejaVuSans-6e" x="306.144531"/>
     <use xlink:href="#DejaVuSans-69" x="369.523438"/>
     <use xlink:href="#DejaVuSans-74" x="397.306641"/>
     <use xlink:href="#DejaVuSans-69" x="436.515625"/>
     <use xlink:href="#DejaVuSans-6f" x="464.298828"/>
     <use xlink:href="#DejaVuSans-6e" x="525.480469"/>
     <use xlink:href="#DejaVuSans-20" x="588.859375"/>
     <use xlink:href="#DejaVuSans-41" x="620.646484"/>
     <use xlink:href="#DejaVuSans-63" x="687.304688"/>
     <use xlink:href="#DejaVuSans-63" x="742.285156"/>
     <use xlink:href="#DejaVuSans-75" x="797.265625"/>
     <use xlink:href="#DejaVuSans-72" x="860.644531"/>
     <use xlink:href="#DejaVuSans-61" x="901.757812"/>
     <use xlink:href="#DejaVuSans-63" x="963.037109"/>
     <use xlink:href="#DejaVuSans-79" x="1018.017578"/>
     <use xlink:href="#DejaVuSans-20" x="1077.197266"/>
     <use xlink:href="#DejaVuSans-66" x="1108.984375"/>
     <use xlink:href="#DejaVuSans-6f" x="1144.189453"/>
     <use xlink:href="#DejaVuSans-72" x="1205.371094"/>
     <use xlink:href="#DejaVuSans-20" x="1246.484375"/>
     <use xlink:href="#DejaVuSans-31" x="1278.271484"/>
     <use xlink:href="#DejaVuSans-30" x="1341.894531"/>
     <use xlink:href="#DejaVuSans-30" x="1405.517578"/>
     <use xlink:href="#DejaVuSans-20" x="1469.140625"/>
     <use xlink:href="#DejaVuSans-49" x="1500.927734"/>
     <use xlink:href="#DejaVuSans-6d" x="1530.419922"/>
     <use xlink:href="#DejaVuSans-61" x="1627.832031"/>
     <use xlink:href="#DejaVuSans-67" x="1689.111328"/>
     <use xlink:href="#DejaVuSans-65" x="1752.587891"/>
     <use xlink:href="#DejaVuSans-73" x="1814.111328"/>
    </g>
   </g>
  </g>
 </g>
 <defs>
  <clipPath id="pa78effb08f">
   <rect x="90" y="51.84" width="558" height="332.64"/>
  </clipPath>
 </defs>
</svg>
